<svg width="22" height="22" viewBox="-2.444 -2.444 26.889 26.889" fill="none" xmlns="http://www.w3.org/2000/svg">
<path opacity="0.8" d="M0 5.35897V0.564103C0 0.252557 0.252557 0 0.564103 0H5.35897C5.67052 0 5.92308 0.252557 5.92308 0.564103C5.92308 0.875648 5.67052 1.12821 5.35897 1.12821H1.12821V5.35897C1.12821 5.67052 0.875648 5.92308 0.564103 5.92308C0.252557 5.92308 0 5.67052 0 5.35897Z" fill="black"/>
<path opacity="0.8" d="M20.872 5.35897V1.12821H16.6413C16.3297 1.12821 16.0771 0.875648 16.0771 0.564103C16.0771 0.252557 16.3297 0 16.6413 0H21.4361C21.7477 0 22.0002 0.252557 22.0002 0.564103V5.35897C22.0002 5.67052 21.7477 5.92308 21.4361 5.92308C21.1246 5.92308 20.872 5.67052 20.872 5.35897Z" fill="black"/>
<path opacity="0.8" d="M0 16.641C0 16.3295 0.252557 16.0769 0.564103 16.0769C0.875648 16.0769 1.12821 16.3295 1.12821 16.641V20.8718H5.35897C5.67052 20.8718 5.92308 21.1243 5.92308 21.4359C5.92308 21.7474 5.67052 22 5.35897 22H0.564103C0.252557 22 0 21.7474 0 21.4359V16.641Z" fill="black"/>
<path opacity="0.8" d="M20.872 16.641C20.872 16.3295 21.1246 16.0769 21.4361 16.0769C21.7477 16.0769 22.0002 16.3295 22.0002 16.641V21.4359C22.0002 21.7474 21.7477 22 21.4361 22H16.6413C16.3297 22 16.0771 21.7474 16.0771 21.4359C16.0771 21.1243 16.3297 20.8718 16.6413 20.8718H20.872V16.641Z" fill="black"/>
<path d="M6.15304 5.9946L9.19878 18.7448L11.6799 12.5813L18.1806 11.2081L6.15304 5.9946Z" fill="black"/>
</svg>
